<?xml version="1.0" encoding="UTF-8" standalone="no"?>
<!DOCTYPE svg PUBLIC "-//W3C//DTD SVG 1.1//EN"
 "http://www.w3.org/Graphics/SVG/1.1/DTD/svg11.dtd">
<!-- Generated by graphviz version 2.40.1 (20161225.0304)
 -->
<!-- Title: dependencies Pages: 1 -->
<svg width="736pt" height="284pt"
 viewBox="0.00 0.00 736.00 284.00" xmlns="http://www.w3.org/2000/svg" xmlns:xlink="http://www.w3.org/1999/xlink">
<g id="graph0" class="graph" transform="scale(1 1) rotate(0) translate(4 280)">
<title>dependencies</title>
<polygon fill="#ffffff" stroke="transparent" points="-4,4 -4,-280 732,-280 732,4 -4,4"/>
<text text-anchor="start" x="343.0091" y="-42.4" font-family="sans-serif" font-weight="bold" font-size="14.00" fill="#000000">Legend</text>
<polygon fill="#ffffb3" stroke="transparent" points="130,-10 130,-30 150,-30 150,-10 130,-10"/>
<text text-anchor="start" x="153.629" y="-15.4" font-family="sans-serif" font-size="14.00" fill="#000000"> &#160;Declarations</text>
<polygon fill="#8dd3c7" stroke="transparent" points="243,-10 243,-30 263,-30 263,-10 243,-10"/>
<text text-anchor="start" x="266.7251" y="-15.4" font-family="sans-serif" font-size="14.00" fill="#000000"> &#160;Module</text>
<polygon fill="#80b1d3" stroke="transparent" points="329,-10 329,-30 349,-30 349,-10 329,-10"/>
<text text-anchor="start" x="352.7812" y="-15.4" font-family="sans-serif" font-size="14.00" fill="#000000"> &#160;Bootstrap</text>
<polygon fill="#fdb462" stroke="transparent" points="426,-10 426,-30 446,-30 446,-10 426,-10"/>
<text text-anchor="start" x="449.6732" y="-15.4" font-family="sans-serif" font-size="14.00" fill="#000000"> &#160;Providers</text>
<polygon fill="#fb8072" stroke="transparent" points="522,-10 522,-30 542,-30 542,-10 522,-10"/>
<text text-anchor="start" x="545.7258" y="-15.4" font-family="sans-serif" font-size="14.00" fill="#000000"> &#160;Exports</text>
<g id="clust1" class="cluster">
<title>cluster_SharedModule</title>
<polygon fill="none" stroke="#000000" stroke-dasharray="1,5" points="8,-70 8,-268 720,-268 720,-70 8,-70"/>
</g>
<g id="clust2" class="cluster">
<title>cluster_SharedModule_declarations</title>
<polygon fill="none" stroke="#000000" points="24,-78 24,-130 706,-130 706,-78 24,-78"/>
</g>
<g id="clust8" class="cluster">
<title>cluster_SharedModule_exports</title>
<polygon fill="none" stroke="#000000" points="16,-208 16,-260 712,-260 712,-208 16,-208"/>
</g>
<!-- BigInputActionComponent -->
<g id="node1" class="node">
<title>BigInputActionComponent</title>
<polygon fill="#ffffb3" stroke="#000000" points="697.7133,-122 528.2867,-122 528.2867,-86 697.7133,-86 697.7133,-122"/>
<text text-anchor="middle" x="613" y="-99.8" font-family="Times,serif" font-size="14.00" fill="#000000">BigInputActionComponent</text>
</g>
<!-- SharedModule -->
<g id="node5" class="node">
<title>SharedModule</title>
<polygon fill="#8dd3c7" stroke="#000000" points="348.4231,-187 345.4231,-191 324.4231,-191 321.4231,-187 249.5769,-187 249.5769,-151 348.4231,-151 348.4231,-187"/>
<text text-anchor="middle" x="299" y="-164.8" font-family="Times,serif" font-size="14.00" fill="#000000">SharedModule</text>
</g>
<!-- BigInputActionComponent&#45;&gt;SharedModule -->
<g id="edge1" class="edge">
<title>BigInputActionComponent&#45;&gt;SharedModule</title>
<path fill="none" stroke="#000000" d="M642.2855,-122.2667C642.2855,-140.5552 642.2855,-166 642.2855,-166 642.2855,-166 358.55,-166 358.55,-166"/>
<polygon fill="#000000" stroke="#000000" points="358.5501,-162.5001 348.55,-166 358.55,-169.5001 358.5501,-162.5001"/>
</g>
<!-- BigInputComponent -->
<g id="node2" class="node">
<title>BigInputComponent</title>
<polygon fill="#ffffb3" stroke="#000000" points="510.6108,-122 379.3892,-122 379.3892,-86 510.6108,-86 510.6108,-122"/>
<text text-anchor="middle" x="445" y="-99.8" font-family="Times,serif" font-size="14.00" fill="#000000">BigInputComponent</text>
</g>
<!-- BigInputComponent&#45;&gt;SharedModule -->
<g id="edge2" class="edge">
<title>BigInputComponent&#45;&gt;SharedModule</title>
<path fill="none" stroke="#000000" d="M466.8518,-122.0091C466.8518,-138.0494 466.8518,-159 466.8518,-159 466.8518,-159 358.4532,-159 358.4532,-159"/>
<polygon fill="#000000" stroke="#000000" points="358.4533,-155.5001 348.4532,-159 358.4532,-162.5001 358.4533,-155.5001"/>
</g>
<!-- RtlSupportDirective -->
<g id="node3" class="node">
<title>RtlSupportDirective</title>
<polygon fill="#ffffb3" stroke="#000000" points="361.5352,-122 232.4648,-122 232.4648,-86 361.5352,-86 361.5352,-122"/>
<text text-anchor="middle" x="297" y="-99.8" font-family="Times,serif" font-size="14.00" fill="#000000">RtlSupportDirective</text>
</g>
<!-- RtlSupportDirective&#45;&gt;SharedModule -->
<g id="edge3" class="edge">
<title>RtlSupportDirective&#45;&gt;SharedModule</title>
<path fill="none" stroke="#000000" d="M299,-122.1061C299,-122.1061 299,-140.991 299,-140.991"/>
<polygon fill="#000000" stroke="#000000" points="295.5001,-140.9909 299,-150.991 302.5001,-140.991 295.5001,-140.9909"/>
</g>
<!-- SmallInputActionComponent -->
<g id="node4" class="node">
<title>SmallInputActionComponent</title>
<polygon fill="#ffffb3" stroke="#000000" points="213.6553,-122 32.3447,-122 32.3447,-86 213.6553,-86 213.6553,-122"/>
<text text-anchor="middle" x="123" y="-99.8" font-family="Times,serif" font-size="14.00" fill="#000000">SmallInputActionComponent</text>
</g>
<!-- SmallInputActionComponent&#45;&gt;SharedModule -->
<g id="edge4" class="edge">
<title>SmallInputActionComponent&#45;&gt;SharedModule</title>
<path fill="none" stroke="#000000" d="M150.4425,-122.0225C150.4425,-139.3734 150.4425,-163 150.4425,-163 150.4425,-163 239.5325,-163 239.5325,-163"/>
<polygon fill="#000000" stroke="#000000" points="239.5325,-166.5001 249.5325,-163 239.5325,-159.5001 239.5325,-166.5001"/>
</g>
<!-- BigInputActionComponent  -->
<g id="node6" class="node">
<title>BigInputActionComponent </title>
<polygon fill="#fb8072" stroke="#000000" points="704.2134,-252 531.7866,-252 531.7866,-216 704.2134,-216 704.2134,-252"/>
<text text-anchor="middle" x="618" y="-229.8" font-family="Times,serif" font-size="14.00" fill="#000000">BigInputActionComponent </text>
</g>
<!-- SharedModule&#45;&gt;BigInputActionComponent  -->
<g id="edge5" class="edge">
<title>SharedModule&#45;&gt;BigInputActionComponent </title>
<path fill="none" stroke="#000000" stroke-dasharray="5,2" d="M348.5029,-173C430.8361,-173 586.9645,-173 586.9645,-173 586.9645,-173 586.9645,-205.698 586.9645,-205.698"/>
<polygon fill="#000000" stroke="#000000" points="583.4646,-205.698 586.9645,-215.698 590.4646,-205.698 583.4646,-205.698"/>
</g>
<!-- BigInputComponent  -->
<g id="node7" class="node">
<title>BigInputComponent </title>
<polygon fill="#fb8072" stroke="#000000" points="513.1114,-252 378.8886,-252 378.8886,-216 513.1114,-216 513.1114,-252"/>
<text text-anchor="middle" x="446" y="-229.8" font-family="Times,serif" font-size="14.00" fill="#000000">BigInputComponent </text>
</g>
<!-- SharedModule&#45;&gt;BigInputComponent  -->
<g id="edge6" class="edge">
<title>SharedModule&#45;&gt;BigInputComponent </title>
<path fill="none" stroke="#000000" stroke-dasharray="5,2" d="M348.4234,-180C383.0443,-180 423.1482,-180 423.1482,-180 423.1482,-180 423.1482,-205.7181 423.1482,-205.7181"/>
<polygon fill="#000000" stroke="#000000" points="419.6483,-205.718 423.1482,-215.7181 426.6483,-205.7181 419.6483,-205.718"/>
</g>
<!-- RtlSupportDirective  -->
<g id="node8" class="node">
<title>RtlSupportDirective </title>
<polygon fill="#fb8072" stroke="#000000" points="360.5344,-252 227.4656,-252 227.4656,-216 360.5344,-216 360.5344,-252"/>
<text text-anchor="middle" x="294" y="-229.8" font-family="Times,serif" font-size="14.00" fill="#000000">RtlSupportDirective </text>
</g>
<!-- SharedModule&#45;&gt;RtlSupportDirective  -->
<g id="edge7" class="edge">
<title>SharedModule&#45;&gt;RtlSupportDirective </title>
<path fill="none" stroke="#000000" stroke-dasharray="5,2" d="M299,-187.1061C299,-187.1061 299,-205.991 299,-205.991"/>
<polygon fill="#000000" stroke="#000000" points="295.5001,-205.9909 299,-215.991 302.5001,-205.991 295.5001,-205.9909"/>
</g>
<!-- SmallInputActionComponent  -->
<g id="node9" class="node">
<title>SmallInputActionComponent </title>
<polygon fill="#fb8072" stroke="#000000" points="209.6551,-252 24.3449,-252 24.3449,-216 209.6551,-216 209.6551,-252"/>
<text text-anchor="middle" x="117" y="-229.8" font-family="Times,serif" font-size="14.00" fill="#000000">SmallInputActionComponent </text>
</g>
<!-- SharedModule&#45;&gt;SmallInputActionComponent  -->
<g id="edge8" class="edge">
<title>SharedModule&#45;&gt;SmallInputActionComponent </title>
<path fill="none" stroke="#000000" stroke-dasharray="5,2" d="M249.7798,-175C188.3623,-175 91.3075,-175 91.3075,-175 91.3075,-175 91.3075,-205.9775 91.3075,-205.9775"/>
<polygon fill="#000000" stroke="#000000" points="87.8076,-205.9774 91.3075,-215.9775 94.8076,-205.9775 87.8076,-205.9774"/>
</g>
</g>
</svg>
