<?xml version="1.0" encoding="UTF-8" standalone="no"?>
<!DOCTYPE svg PUBLIC "-//W3C//DTD SVG 1.1//EN"
 "http://www.w3.org/Graphics/SVG/1.1/DTD/svg11.dtd">
<!-- Generated by graphviz version 2.40.1 (20161225.0304)
 -->
<!-- Title: dependencies Pages: 1 -->
<svg width="2661pt" height="366pt"
 viewBox="0.00 0.00 2661.00 366.00" xmlns="http://www.w3.org/2000/svg" xmlns:xlink="http://www.w3.org/1999/xlink">
<g id="graph0" class="graph" transform="scale(1 1) rotate(0) translate(4 362)">
<title>dependencies</title>
<polygon fill="#ffffff" stroke="transparent" points="-4,4 -4,-362 2657,-362 2657,4 -4,4"/>
<text text-anchor="start" x="1305.5091" y="-42.4" font-family="sans-serif" font-weight="bold" font-size="14.00" fill="#000000">Legend</text>
<polygon fill="#ffffb3" stroke="transparent" points="1092.5,-10 1092.5,-30 1112.5,-30 1112.5,-10 1092.5,-10"/>
<text text-anchor="start" x="1116.129" y="-15.4" font-family="sans-serif" font-size="14.00" fill="#000000"> &#160;Declarations</text>
<polygon fill="#8dd3c7" stroke="transparent" points="1205.5,-10 1205.5,-30 1225.5,-30 1225.5,-10 1205.5,-10"/>
<text text-anchor="start" x="1229.2251" y="-15.4" font-family="sans-serif" font-size="14.00" fill="#000000"> &#160;Module</text>
<polygon fill="#80b1d3" stroke="transparent" points="1291.5,-10 1291.5,-30 1311.5,-30 1311.5,-10 1291.5,-10"/>
<text text-anchor="start" x="1315.2812" y="-15.4" font-family="sans-serif" font-size="14.00" fill="#000000"> &#160;Bootstrap</text>
<polygon fill="#fdb462" stroke="transparent" points="1388.5,-10 1388.5,-30 1408.5,-30 1408.5,-10 1388.5,-10"/>
<text text-anchor="start" x="1412.1732" y="-15.4" font-family="sans-serif" font-size="14.00" fill="#000000"> &#160;Providers</text>
<polygon fill="#fb8072" stroke="transparent" points="1484.5,-10 1484.5,-30 1504.5,-30 1504.5,-10 1484.5,-10"/>
<text text-anchor="start" x="1508.2258" y="-15.4" font-family="sans-serif" font-size="14.00" fill="#000000"> &#160;Exports</text>
<g id="clust1" class="cluster">
<title>cluster_AboutModule</title>
<polygon fill="none" stroke="#000000" stroke-dasharray="1,5" points="8,-146 8,-274 436,-274 436,-146 8,-146"/>
</g>
<g id="clust2" class="cluster">
<title>cluster_AboutModule_declarations</title>
<polygon fill="none" stroke="#000000" points="16,-154 16,-206 148,-206 148,-154 16,-154"/>
</g>
<g id="clust4" class="cluster">
<title>cluster_AboutModule_imports</title>
<polygon fill="none" stroke="#000000" points="156,-154 156,-206 428,-206 428,-154 156,-154"/>
</g>
<g id="clust14" class="cluster">
<title>cluster_AppModule</title>
<polygon fill="none" stroke="#000000" stroke-dasharray="1,5" points="1854,-146 1854,-350 2249,-350 2249,-146 1854,-146"/>
</g>
<g id="clust15" class="cluster">
<title>cluster_AppModule_declarations</title>
<polygon fill="none" stroke="#000000" points="2119,-154 2119,-206 2241,-206 2241,-154 2119,-154"/>
</g>
<g id="clust17" class="cluster">
<title>cluster_AppModule_imports</title>
<polygon fill="none" stroke="#000000" points="1862,-154 1862,-206 2111,-206 2111,-154 1862,-154"/>
</g>
<g id="clust19" class="cluster">
<title>cluster_AppModule_bootstrap</title>
<polygon fill="none" stroke="#000000" points="1919,-290 1919,-342 2043,-342 2043,-290 1919,-290"/>
</g>
<g id="clust27" class="cluster">
<title>cluster_CoreModule</title>
<polygon fill="none" stroke="#000000" stroke-dasharray="1,5" points="1806,-70 1806,-138 2020,-138 2020,-70 1806,-70"/>
</g>
<g id="clust32" class="cluster">
<title>cluster_CoreModule_providers</title>
<polygon fill="none" stroke="#000000" points="1814,-78 1814,-130 2012,-130 2012,-78 1814,-78"/>
</g>
<g id="clust33" class="cluster">
<title>cluster_SettingsModule</title>
<polygon fill="none" stroke="#000000" stroke-dasharray="1,5" points="2257,-146 2257,-274 2645,-274 2645,-146 2257,-146"/>
</g>
<g id="clust34" class="cluster">
<title>cluster_SettingsModule_declarations</title>
<polygon fill="none" stroke="#000000" points="2439,-154 2439,-206 2637,-206 2637,-154 2439,-154"/>
</g>
<g id="clust36" class="cluster">
<title>cluster_SettingsModule_imports</title>
<polygon fill="none" stroke="#000000" points="2265,-154 2265,-206 2431,-206 2431,-154 2265,-154"/>
</g>
<g id="clust46" class="cluster">
<title>cluster_SharedModule</title>
<polygon fill="none" stroke="#000000" stroke-dasharray="1,5" points="444,-214 444,-282 1846,-282 1846,-214 444,-214"/>
</g>
<g id="clust47" class="cluster">
<title>cluster_SharedModule_declarations</title>
<polygon fill="none" stroke="#000000" points="1156,-222 1156,-274 1838,-274 1838,-222 1156,-222"/>
</g>
<g id="clust53" class="cluster">
<title>cluster_SharedModule_exports</title>
<polygon fill="none" stroke="#000000" points="452,-222 452,-274 1148,-274 1148,-222 452,-222"/>
</g>
<!-- AboutComponent -->
<g id="node1" class="node">
<title>AboutComponent</title>
<polygon fill="#ffffb3" stroke="#000000" points="140.3301,-198 23.6699,-198 23.6699,-162 140.3301,-162 140.3301,-198"/>
<text text-anchor="middle" x="82" y="-175.8" font-family="Times,serif" font-size="14.00" fill="#000000">AboutComponent</text>
</g>
<!-- AboutModule -->
<g id="node2" class="node">
<title>AboutModule</title>
<polygon fill="#8dd3c7" stroke="#000000" points="281.0481,-266 278.0481,-270 257.0481,-270 254.0481,-266 186.9519,-266 186.9519,-230 281.0481,-230 281.0481,-266"/>
<text text-anchor="middle" x="234" y="-243.8" font-family="Times,serif" font-size="14.00" fill="#000000">AboutModule</text>
</g>
<!-- AboutComponent&#45;&gt;AboutModule -->
<g id="edge1" class="edge">
<title>AboutComponent&#45;&gt;AboutModule</title>
<path fill="none" stroke="#000000" d="M82,-198.2228C82,-218.3652 82,-248 82,-248 82,-248 176.7395,-248 176.7395,-248"/>
<polygon fill="#000000" stroke="#000000" points="176.7395,-251.5001 186.7395,-248 176.7394,-244.5001 176.7395,-251.5001"/>
</g>
<!-- AboutRoutingModule -->
<g id="node3" class="node">
<title>AboutRoutingModule</title>
<polygon fill="#8dd3c7" stroke="#000000" points="303.6652,-198 300.6652,-202 279.6652,-202 276.6652,-198 164.3348,-198 164.3348,-162 303.6652,-162 303.6652,-198"/>
<text text-anchor="middle" x="234" y="-175.8" font-family="Times,serif" font-size="14.00" fill="#000000">AboutRoutingModule</text>
</g>
<!-- AboutRoutingModule&#45;&gt;AboutModule -->
<g id="edge2" class="edge">
<title>AboutRoutingModule&#45;&gt;AboutModule</title>
<path fill="none" stroke="#000000" d="M234,-198.2228C234,-198.2228 234,-219.7269 234,-219.7269"/>
<polygon fill="#000000" stroke="#000000" points="230.5001,-219.7269 234,-229.7269 237.5001,-219.727 230.5001,-219.7269"/>
</g>
<!-- SharedModule -->
<g id="node4" class="node">
<title>SharedModule</title>
<polygon fill="#8dd3c7" stroke="#000000" points="420.4231,-198 417.4231,-202 396.4231,-202 393.4231,-198 321.5769,-198 321.5769,-162 420.4231,-162 420.4231,-198"/>
<text text-anchor="middle" x="371" y="-175.8" font-family="Times,serif" font-size="14.00" fill="#000000">SharedModule</text>
</g>
<!-- SharedModule&#45;&gt;AboutModule -->
<g id="edge3" class="edge">
<title>SharedModule&#45;&gt;AboutModule</title>
<path fill="none" stroke="#000000" d="M371,-198.2921C371,-220.2057 371,-254 371,-254 371,-254 291.1476,-254 291.1476,-254"/>
<polygon fill="#000000" stroke="#000000" points="291.1477,-250.5001 281.1476,-254 291.1476,-257.5001 291.1477,-250.5001"/>
</g>
<!-- AppModule -->
<g id="node6" class="node">
<title>AppModule</title>
<polygon fill="#8dd3c7" stroke="#000000" points="2022.6571,-266 2019.6571,-270 1998.6571,-270 1995.6571,-266 1939.3429,-266 1939.3429,-230 2022.6571,-230 2022.6571,-266"/>
<text text-anchor="middle" x="1981" y="-243.8" font-family="Times,serif" font-size="14.00" fill="#000000">AppModule</text>
</g>
<!-- SharedModule&#45;&gt;AppModule -->
<g id="edge7" class="edge">
<title>SharedModule&#45;&gt;AppModule</title>
<path fill="none" stroke="#000000" d="M420.6216,-166C678.0604,-166 1849.6932,-166 1849.6932,-166 1849.6932,-166 1849.6932,-248 1849.6932,-248 1849.6932,-248 1929.0927,-248 1929.0927,-248"/>
<polygon fill="#000000" stroke="#000000" points="1929.0927,-251.5001 1939.0927,-248 1929.0927,-244.5001 1929.0927,-251.5001"/>
</g>
<!-- SettingsModule -->
<g id="node12" class="node">
<title>SettingsModule</title>
<polygon fill="#8dd3c7" stroke="#000000" points="2400.1639,-266 2397.1639,-270 2376.1639,-270 2373.1639,-266 2295.8361,-266 2295.8361,-230 2400.1639,-230 2400.1639,-266"/>
<text text-anchor="middle" x="2348" y="-243.8" font-family="Times,serif" font-size="14.00" fill="#000000">SettingsModule</text>
</g>
<!-- SharedModule&#45;&gt;SettingsModule -->
<g id="edge12" class="edge">
<title>SharedModule&#45;&gt;SettingsModule</title>
<path fill="none" stroke="#000000" d="M346.3945,-198.1944C346.3945,-206.2782 346.3945,-214 346.3945,-214 346.3945,-214 2330.5561,-214 2330.5561,-214 2330.5561,-214 2330.5561,-219.8056 2330.5561,-219.8056"/>
<polygon fill="#000000" stroke="#000000" points="2327.0562,-219.8055 2330.5561,-229.8056 2334.0562,-219.8056 2327.0562,-219.8055"/>
</g>
<!-- BigInputActionComponent  -->
<g id="node18" class="node">
<title>BigInputActionComponent </title>
<polygon fill="#fb8072" stroke="#000000" points="785.2134,-266 612.7866,-266 612.7866,-230 785.2134,-230 785.2134,-266"/>
<text text-anchor="middle" x="699" y="-243.8" font-family="Times,serif" font-size="14.00" fill="#000000">BigInputActionComponent </text>
</g>
<!-- SharedModule&#45;&gt;BigInputActionComponent  -->
<g id="edge17" class="edge">
<title>SharedModule&#45;&gt;BigInputActionComponent </title>
<path fill="none" stroke="#000000" stroke-dasharray="5,2" d="M420.46,-194C512.0898,-194 699,-194 699,-194 699,-194 699,-219.7181 699,-219.7181"/>
<polygon fill="#000000" stroke="#000000" points="695.5001,-219.718 699,-229.7181 702.5001,-219.7181 695.5001,-219.718"/>
</g>
<!-- BigInputComponent  -->
<g id="node19" class="node">
<title>BigInputComponent </title>
<polygon fill="#fb8072" stroke="#000000" points="594.1114,-266 459.8886,-266 459.8886,-230 594.1114,-230 594.1114,-266"/>
<text text-anchor="middle" x="527" y="-243.8" font-family="Times,serif" font-size="14.00" fill="#000000">BigInputComponent </text>
</g>
<!-- SharedModule&#45;&gt;BigInputComponent  -->
<g id="edge18" class="edge">
<title>SharedModule&#45;&gt;BigInputComponent </title>
<path fill="none" stroke="#000000" stroke-dasharray="5,2" d="M395.6056,-198.2667C395.6056,-216.5552 395.6056,-242 395.6056,-242 395.6056,-242 449.7631,-242 449.7631,-242"/>
<polygon fill="#000000" stroke="#000000" points="449.7632,-245.5001 459.7631,-242 449.7631,-238.5001 449.7632,-245.5001"/>
</g>
<!-- RtlSupportDirective  -->
<g id="node20" class="node">
<title>RtlSupportDirective </title>
<polygon fill="#fb8072" stroke="#000000" points="1139.5344,-266 1006.4656,-266 1006.4656,-230 1139.5344,-230 1139.5344,-266"/>
<text text-anchor="middle" x="1073" y="-243.8" font-family="Times,serif" font-size="14.00" fill="#000000">RtlSupportDirective </text>
</g>
<!-- SharedModule&#45;&gt;RtlSupportDirective  -->
<g id="edge19" class="edge">
<title>SharedModule&#45;&gt;RtlSupportDirective </title>
<path fill="none" stroke="#000000" stroke-dasharray="5,2" d="M420.3633,-186C580.1534,-186 1073,-186 1073,-186 1073,-186 1073,-219.7333 1073,-219.7333"/>
<polygon fill="#000000" stroke="#000000" points="1069.5001,-219.7333 1073,-229.7333 1076.5001,-219.7333 1069.5001,-219.7333"/>
</g>
<!-- SmallInputActionComponent  -->
<g id="node21" class="node">
<title>SmallInputActionComponent </title>
<polygon fill="#fb8072" stroke="#000000" points="988.6551,-266 803.3449,-266 803.3449,-230 988.6551,-230 988.6551,-266"/>
<text text-anchor="middle" x="896" y="-243.8" font-family="Times,serif" font-size="14.00" fill="#000000">SmallInputActionComponent </text>
</g>
<!-- SharedModule&#45;&gt;SmallInputActionComponent  -->
<g id="edge20" class="edge">
<title>SharedModule&#45;&gt;SmallInputActionComponent </title>
<path fill="none" stroke="#000000" stroke-dasharray="5,2" d="M420.3907,-190C551.0822,-190 896,-190 896,-190 896,-190 896,-219.9664 896,-219.9664"/>
<polygon fill="#000000" stroke="#000000" points="892.5001,-219.9663 896,-229.9664 899.5001,-219.9664 892.5001,-219.9663"/>
</g>
<!-- AppComponent -->
<g id="node5" class="node">
<title>AppComponent</title>
<polygon fill="#ffffb3" stroke="#000000" points="2232.9399,-198 2127.0601,-198 2127.0601,-162 2232.9399,-162 2232.9399,-198"/>
<text text-anchor="middle" x="2180" y="-175.8" font-family="Times,serif" font-size="14.00" fill="#000000">AppComponent</text>
</g>
<!-- AppComponent&#45;&gt;AppModule -->
<g id="edge4" class="edge">
<title>AppComponent&#45;&gt;AppModule</title>
<path fill="none" stroke="#000000" d="M2180,-198.2228C2180,-218.3652 2180,-248 2180,-248 2180,-248 2032.7169,-248 2032.7169,-248"/>
<polygon fill="#000000" stroke="#000000" points="2032.717,-244.5001 2022.7169,-248 2032.7169,-251.5001 2032.717,-244.5001"/>
</g>
<!-- AppComponent  -->
<g id="node9" class="node">
<title>AppComponent </title>
<polygon fill="#80b1d3" stroke="#000000" points="2035.439,-334 1926.561,-334 1926.561,-298 2035.439,-298 2035.439,-334"/>
<text text-anchor="middle" x="1981" y="-311.8" font-family="Times,serif" font-size="14.00" fill="#000000">AppComponent </text>
</g>
<!-- AppModule&#45;&gt;AppComponent  -->
<g id="edge8" class="edge">
<title>AppModule&#45;&gt;AppComponent </title>
<path fill="none" stroke="#000000" stroke-dasharray="1,5" d="M1981,-266.2228C1981,-266.2228 1981,-287.7269 1981,-287.7269"/>
<polygon fill="#000000" stroke="#000000" points="1977.5001,-287.7269 1981,-297.7269 1984.5001,-287.727 1977.5001,-287.7269"/>
</g>
<!-- AppRoutingModule -->
<g id="node7" class="node">
<title>AppRoutingModule</title>
<polygon fill="#8dd3c7" stroke="#000000" points="2103.2744,-198 2100.2744,-202 2079.2744,-202 2076.2744,-198 1974.7256,-198 1974.7256,-162 2103.2744,-162 2103.2744,-198"/>
<text text-anchor="middle" x="2039" y="-175.8" font-family="Times,serif" font-size="14.00" fill="#000000">AppRoutingModule</text>
</g>
<!-- AppRoutingModule&#45;&gt;AppModule -->
<g id="edge5" class="edge">
<title>AppRoutingModule&#45;&gt;AppModule</title>
<path fill="none" stroke="#000000" d="M1998.7206,-198.2228C1998.7206,-198.2228 1998.7206,-219.7269 1998.7206,-219.7269"/>
<polygon fill="#000000" stroke="#000000" points="1995.2206,-219.7269 1998.7206,-229.7269 2002.2206,-219.727 1995.2206,-219.7269"/>
</g>
<!-- CoreModule -->
<g id="node8" class="node">
<title>CoreModule</title>
<polygon fill="#8dd3c7" stroke="#000000" points="1956.2619,-198 1953.2619,-202 1932.2619,-202 1929.2619,-198 1869.7381,-198 1869.7381,-162 1956.2619,-162 1956.2619,-198"/>
<text text-anchor="middle" x="1913" y="-175.8" font-family="Times,serif" font-size="14.00" fill="#000000">CoreModule</text>
</g>
<!-- CoreModule&#45;&gt;AppModule -->
<g id="edge6" class="edge">
<title>CoreModule&#45;&gt;AppModule</title>
<path fill="none" stroke="#000000" d="M1947.7763,-198.2228C1947.7763,-198.2228 1947.7763,-219.7269 1947.7763,-219.7269"/>
<polygon fill="#000000" stroke="#000000" points="1944.2764,-219.7269 1947.7763,-229.7269 1951.2764,-219.727 1944.2764,-219.7269"/>
</g>
<!-- HttpErrorInterceptor -->
<g id="node10" class="node">
<title>HttpErrorInterceptor</title>
<ellipse fill="#fdb462" stroke="#000000" cx="1913" cy="-104" rx="90.8665" ry="18"/>
<text text-anchor="middle" x="1913" y="-99.8" font-family="Times,serif" font-size="14.00" fill="#000000">HttpErrorInterceptor</text>
</g>
<!-- HttpErrorInterceptor&#45;&gt;CoreModule -->
<g id="edge9" class="edge">
<title>HttpErrorInterceptor&#45;&gt;CoreModule</title>
<path fill="none" stroke="#000000" d="M1913,-122.0109C1913,-122.0109 1913,-151.855 1913,-151.855"/>
<polygon fill="#000000" stroke="#000000" points="1909.5001,-151.8549 1913,-161.855 1916.5001,-151.855 1909.5001,-151.8549"/>
</g>
<!-- SettingsContainerComponent -->
<g id="node11" class="node">
<title>SettingsContainerComponent</title>
<polygon fill="#ffffb3" stroke="#000000" points="2628.6539,-198 2447.3461,-198 2447.3461,-162 2628.6539,-162 2628.6539,-198"/>
<text text-anchor="middle" x="2538" y="-175.8" font-family="Times,serif" font-size="14.00" fill="#000000">SettingsContainerComponent</text>
</g>
<!-- SettingsContainerComponent&#45;&gt;SettingsModule -->
<g id="edge10" class="edge">
<title>SettingsContainerComponent&#45;&gt;SettingsModule</title>
<path fill="none" stroke="#000000" d="M2538,-198.2228C2538,-218.3652 2538,-248 2538,-248 2538,-248 2410.1696,-248 2410.1696,-248"/>
<polygon fill="#000000" stroke="#000000" points="2410.1697,-244.5001 2400.1696,-248 2410.1696,-251.5001 2410.1697,-244.5001"/>
</g>
<!-- SettingsRoutingModule -->
<g id="node13" class="node">
<title>SettingsRoutingModule</title>
<polygon fill="#8dd3c7" stroke="#000000" points="2422.7814,-198 2419.7814,-202 2398.7814,-202 2395.7814,-198 2273.2186,-198 2273.2186,-162 2422.7814,-162 2422.7814,-198"/>
<text text-anchor="middle" x="2348" y="-175.8" font-family="Times,serif" font-size="14.00" fill="#000000">SettingsRoutingModule</text>
</g>
<!-- SettingsRoutingModule&#45;&gt;SettingsModule -->
<g id="edge11" class="edge">
<title>SettingsRoutingModule&#45;&gt;SettingsModule</title>
<path fill="none" stroke="#000000" d="M2365.4439,-198.2228C2365.4439,-198.2228 2365.4439,-219.7269 2365.4439,-219.7269"/>
<polygon fill="#000000" stroke="#000000" points="2361.944,-219.7269 2365.4439,-229.7269 2368.944,-219.727 2361.944,-219.7269"/>
</g>
<!-- BigInputActionComponent -->
<g id="node14" class="node">
<title>BigInputActionComponent</title>
<polygon fill="#ffffb3" stroke="#000000" points="1482.7133,-266 1313.2867,-266 1313.2867,-230 1482.7133,-230 1482.7133,-266"/>
<text text-anchor="middle" x="1398" y="-243.8" font-family="Times,serif" font-size="14.00" fill="#000000">BigInputActionComponent</text>
</g>
<!-- BigInputActionComponent&#45;&gt;SharedModule -->
<g id="edge13" class="edge">
<title>BigInputActionComponent&#45;&gt;SharedModule</title>
<path fill="none" stroke="#000000" d="M1398,-229.9733C1398,-209.2328 1398,-178 1398,-178 1398,-178 430.5343,-178 430.5343,-178"/>
<polygon fill="#000000" stroke="#000000" points="430.5344,-174.5001 420.5343,-178 430.5343,-181.5001 430.5344,-174.5001"/>
</g>
<!-- BigInputComponent -->
<g id="node15" class="node">
<title>BigInputComponent</title>
<polygon fill="#ffffb3" stroke="#000000" points="1295.6108,-266 1164.3892,-266 1164.3892,-230 1295.6108,-230 1295.6108,-266"/>
<text text-anchor="middle" x="1230" y="-243.8" font-family="Times,serif" font-size="14.00" fill="#000000">BigInputComponent</text>
</g>
<!-- BigInputComponent&#45;&gt;SharedModule -->
<g id="edge14" class="edge">
<title>BigInputComponent&#45;&gt;SharedModule</title>
<path fill="none" stroke="#000000" d="M1230,-229.9652C1230,-210.4238 1230,-182 1230,-182 1230,-182 430.2688,-182 430.2688,-182"/>
<polygon fill="#000000" stroke="#000000" points="430.2689,-178.5001 420.2688,-182 430.2688,-185.5001 430.2689,-178.5001"/>
</g>
<!-- RtlSupportDirective -->
<g id="node16" class="node">
<title>RtlSupportDirective</title>
<polygon fill="#ffffb3" stroke="#000000" points="1829.5352,-266 1700.4648,-266 1700.4648,-230 1829.5352,-230 1829.5352,-266"/>
<text text-anchor="middle" x="1765" y="-243.8" font-family="Times,serif" font-size="14.00" fill="#000000">RtlSupportDirective</text>
</g>
<!-- RtlSupportDirective&#45;&gt;SharedModule -->
<g id="edge15" class="edge">
<title>RtlSupportDirective&#45;&gt;SharedModule</title>
<path fill="none" stroke="#000000" d="M1761.1498,-229.9092C1761.1498,-206.8672 1761.1498,-170 1761.1498,-170 1761.1498,-170 430.4762,-170 430.4762,-170"/>
<polygon fill="#000000" stroke="#000000" points="430.4762,-166.5001 420.4762,-170 430.4761,-173.5001 430.4762,-166.5001"/>
</g>
<!-- SmallInputActionComponent -->
<g id="node17" class="node">
<title>SmallInputActionComponent</title>
<polygon fill="#ffffb3" stroke="#000000" points="1681.6553,-266 1500.3447,-266 1500.3447,-230 1681.6553,-230 1681.6553,-266"/>
<text text-anchor="middle" x="1591" y="-243.8" font-family="Times,serif" font-size="14.00" fill="#000000">SmallInputActionComponent</text>
</g>
<!-- SmallInputActionComponent&#45;&gt;SharedModule -->
<g id="edge16" class="edge">
<title>SmallInputActionComponent&#45;&gt;SharedModule</title>
<path fill="none" stroke="#000000" d="M1591,-229.7079C1591,-207.7943 1591,-174 1591,-174 1591,-174 430.3365,-174 430.3365,-174"/>
<polygon fill="#000000" stroke="#000000" points="430.3365,-170.5001 420.3365,-174 430.3364,-177.5001 430.3365,-170.5001"/>
</g>
</g>
</svg>
